<svg xmlns="http://www.w3.org/2000/svg" viewBox="0 0 24 24"><path d="M12 0H7C5.9.2 5 .4 4.2.7c-.7.3-1.4.7-2 1.4S.8 3.4.5 4.1c-.3.8-.5 1.7-.5 3a83.6 83.6 0 0 0 .5 12.8c.3.7.7 1.4 1.4 2 .7.8 1.3 1.2 2.1 1.5.8.3 1.7.5 3 .5a83.6 83.6 0 0 0 12.8-.5c.7-.3 1.4-.7 2-1.4.8-.7 1.2-1.3 1.5-2.1.3-.8.5-1.7.5-3a83.6 83.6 0 0 0-.5-12.8c-.3-.7-.7-1.4-1.4-2-.7-.8-1.3-1.2-2.1-1.5-.8-.3-1.7-.5-3-.5L12 0zm0 2.2h4.8c1.2 0 1.9.3 2.3.4.5.3 1 .5 1.4 1 .4.4.6.8.9 1.3.1.4.3 1 .4 2.2a84 84 0 0 1-.5 12c-.2.5-.4 1-.9 1.4-.4.4-.8.6-1.3.9-.5.1-1.1.3-2.3.4a84.5 84.5 0 0 1-12-.5c-.5-.2-.9-.4-1.3-.9-.4-.4-.7-.8-.9-1.3-.2-.5-.4-1.1-.4-2.3V7.1c0-1.1.2-1.8.4-2.2.2-.6.5-1 .9-1.4.4-.4.8-.7 1.4-.9.4-.2 1-.3 2.2-.4H12zm0 3.6a6.2 6.2 0 1 0 0 12.4 6.2 6.2 0 0 0 0-12.4zM12 16a4 4 0 1 1 0-8 4 4 0 0 1 0 8zm7.8-10.4a1.4 1.4 0 1 1-2.8 0 1.4 1.4 0 0 1 2.8 0z"/></svg>